<svg width="60" height="60" viewBox="0 0 60 60" fill="none" xmlns="http://www.w3.org/2000/svg">
<path d="M9.99984 25L8.23234 26.7675L6.46484 25L8.23234 23.2325L9.99984 25ZM52.4998 45C52.4998 45.663 52.2365 46.2989 51.7676 46.7677C51.2988 47.2366 50.6629 47.5 49.9998 47.5C49.3368 47.5 48.7009 47.2366 48.2321 46.7677C47.7632 46.2989 47.4998 45.663 47.4998 45H52.4998ZM20.7323 39.2675L8.23234 26.7675L11.7673 23.2325L24.2673 35.7325L20.7323 39.2675ZM8.23234 23.2325L20.7323 10.7325L24.2673 14.2675L11.7673 26.7675L8.23234 23.2325ZM9.99984 22.5H34.9998V27.5H9.99984V22.5ZM52.4998 40V45H47.4998V40H52.4998ZM34.9998 22.5C39.6411 22.5 44.0923 24.3437 47.3742 27.6256C50.6561 30.9075 52.4998 35.3587 52.4998 40H47.4998C47.4998 36.6848 46.1829 33.5054 43.8387 31.1611C41.4945 28.8169 38.315 27.5 34.9998 27.5V22.5Z" fill="white"/>
</svg>
