<svg width="60" height="60" viewBox="0 0 60 60" fill="none" xmlns="http://www.w3.org/2000/svg">
<path d="M32.4911 43.5884C32.8322 43.9175 33.2889 44.0995 33.7629 44.0952C34.2369 44.0908 34.6902 43.9005 35.0252 43.5652C35.3602 43.2299 35.5501 42.7765 35.554 42.3025C35.5579 41.8286 35.3754 41.372 35.046 41.0313L32.4911 43.5884ZM17.9693 23.9507C17.8025 23.7781 17.603 23.6405 17.3824 23.5459C17.1618 23.4512 16.9246 23.4015 16.6845 23.3995C16.4445 23.3975 16.2065 23.4434 15.9844 23.5344C15.7623 23.6254 15.5605 23.7597 15.3908 23.9295C15.2212 24.0993 15.0871 24.3012 14.9963 24.5234C14.9055 24.7455 14.8599 24.9836 14.8621 25.2236C14.8643 25.4636 14.9142 25.7008 15.0091 25.9213C15.1039 26.1418 15.2417 26.3412 15.4145 26.5078L17.9693 23.9507ZM43.8772 29.6434L29.6446 43.8752L32.1995 46.43L46.432 32.2006L43.8772 29.6434ZM15.1228 29.3566L29.3554 15.1224L26.8005 12.57L12.5679 26.797L15.1228 29.3566ZM15.1228 43.8752C13.0741 41.8266 11.6689 40.4143 10.7554 39.2165C9.87087 38.0572 9.61538 37.3124 9.61538 36.6135L6 36.6159C6 38.4211 6.752 39.9274 7.88 41.4097C8.97667 42.8461 10.5915 44.4537 12.5679 46.43L15.1228 43.8752ZM12.5679 26.797C10.5915 28.7733 8.97667 30.3833 7.88 31.8198C6.752 33.2996 6 34.8083 6 36.6159L9.61538 36.6135C9.61538 35.9146 9.87087 35.1698 10.7554 34.013C11.6713 32.8127 13.0741 31.4052 15.1228 29.3566L12.5679 26.797ZM29.6446 43.8752C27.5959 45.9239 26.1859 47.329 24.9856 48.2448C23.8287 49.1269 23.0815 49.3824 22.3825 49.3824V52.9976C24.1902 52.9976 25.699 52.2456 27.1789 51.1177C28.6154 50.0211 30.2255 48.4063 32.2019 46.43L29.6446 43.8752ZM12.5679 46.43C14.5444 48.4063 16.152 50.0211 17.5909 51.1177C19.0708 52.2456 20.5796 53 22.3849 53V49.3824C21.6859 49.3824 20.9412 49.1269 19.7818 48.2424C18.5839 47.3265 17.1715 45.9239 15.1228 43.8752L12.5679 46.43ZM43.8772 15.1224C45.9259 17.171 47.3311 18.5833 48.247 19.7811C49.1291 20.9404 49.3846 21.6851 49.3846 22.3841H53C53 20.5789 52.248 19.0702 51.12 17.5879C50.0233 16.1515 48.4085 14.5439 46.432 12.5676L43.8772 15.1224ZM46.432 32.2006C48.4085 30.2242 50.0233 28.6143 51.12 27.1778C52.248 25.698 53 24.1893 53 22.3817H49.3846C49.3846 23.0806 49.1291 23.8278 48.2446 24.9846C47.3287 26.1849 45.9259 27.5948 43.8772 29.6434L46.432 32.2006ZM46.432 12.5676C44.4556 10.5913 42.848 8.97651 41.4091 7.8799C39.9292 6.75196 38.4204 6 36.6151 6V9.6152C37.3141 9.6152 38.0588 9.87067 39.2182 10.7552C40.416 11.671 41.8285 13.0737 43.8772 15.1224L46.432 12.5676ZM29.3554 15.1224C31.4041 13.0737 32.8141 11.6686 34.0144 10.7552C35.1713 9.87067 35.9185 9.6152 36.6175 9.6152V6C34.8098 6 33.301 6.75196 31.8211 7.8799C30.3846 8.97651 28.7745 10.5913 26.7981 12.5676L29.3554 15.1224ZM35.0484 41.0289L17.9693 23.9531L15.4145 26.5078L32.4911 43.5884L35.0484 41.0289Z" fill="white"/>
<path d="M22.5 52.5H52.5" stroke="white" stroke-width="1.5" stroke-linecap="round"/>
</svg>
