<svg width="60" height="60" viewBox="0 0 60 60" fill="none" xmlns="http://www.w3.org/2000/svg">
<path fill-rule="evenodd" clip-rule="evenodd" d="M17.2919 31.1989C11.0444 21.5312 17.9868 8.78125 29.5 8.78125C41.0133 8.78125 47.9557 21.5312 41.7082 31.1989L34.5745 42.25H24.4255L17.2919 31.1989ZM19.9375 44.1115L13.2757 33.7936C4.97222 20.9416 14.2 4 29.5 4C44.8 4 54.0247 20.9416 45.7244 33.7936L39.0625 44.1115V48.625C39.0625 50.3158 38.3909 51.9373 37.1953 53.1328C35.9998 54.3283 34.3783 55 32.6875 55H26.3125C24.6218 55 23.0003 54.3283 21.8047 53.1328C20.6092 51.9373 19.9375 50.3158 19.9375 48.625V44.1115ZM24.7188 47.0312V48.625C24.7188 49.0477 24.8867 49.4531 25.1856 49.752C25.4845 50.0508 25.8898 50.2188 26.3125 50.2188H32.6875C33.1102 50.2188 33.5156 50.0508 33.8145 49.752C34.1134 49.4531 34.2813 49.0477 34.2813 48.625V47.0312H24.7188Z" fill="#FCFCFC"/>
</svg>
