<svg width="60" height="60" viewBox="0 0 60 60" fill="none" xmlns="http://www.w3.org/2000/svg">
<path d="M33.5938 53.0001C30.9688 53.0001 28.4896 52.5834 26.1563 51.7501C23.823 50.9167 21.698 49.7501 19.7813 48.2501C19.2396 47.7917 18.948 47.2192 18.9063 46.5326C18.8646 45.8459 19.0938 45.2517 19.5938 44.7501C20.0938 44.2484 20.688 43.9984 21.3763 44.0001C22.0646 44.0017 22.6996 44.2101 23.2813 44.6251C24.7396 45.7084 26.3338 46.5417 28.0638 47.1251C29.7938 47.7084 31.6371 48.0001 33.5938 48.0001C38.4271 48.0001 42.5521 46.2917 45.9688 42.8751C49.3855 39.4584 51.0938 35.3334 51.0938 30.5001C51.0938 25.6667 49.3855 21.5417 45.9688 18.1251C42.5521 14.7084 38.4271 13.0001 33.5938 13.0001C28.7605 13.0001 24.6355 14.7084 21.2188 18.1251C17.8021 21.5417 16.0938 25.6667 16.0938 30.5001V30.9376L18.9063 28.1251C19.3646 27.6667 19.938 27.4376 20.6263 27.4376C21.3146 27.4376 21.908 27.6667 22.4063 28.1251C22.9063 28.6251 23.1563 29.2192 23.1563 29.9076C23.1563 30.5959 22.9063 31.1892 22.4063 31.6876L15.3438 38.7501C14.8438 39.2501 14.2605 39.5001 13.5938 39.5001C12.9271 39.5001 12.3438 39.2501 11.8438 38.7501L4.7188 31.6251C4.2188 31.1251 3.97963 30.5317 4.0013 29.8451C4.02297 29.1584 4.28297 28.5851 4.7813 28.1251C5.27963 27.6651 5.8738 27.4251 6.5638 27.4051C7.2538 27.3851 7.8263 27.6251 8.2813 28.1251L11.0938 31.0001V30.5001C11.0938 27.3751 11.688 24.4484 12.8763 21.7201C14.0646 18.9917 15.6688 16.6167 17.6888 14.5951C19.7088 12.5734 22.0838 10.9692 24.8138 9.78256C27.5438 8.59589 30.4705 8.00172 33.5938 8.00006C36.7171 7.99839 39.6446 8.59256 42.3763 9.78256C45.108 10.9726 47.483 12.5759 49.5013 14.5926C51.5196 16.6092 53.1238 18.9842 54.3138 21.7176C55.5038 24.4509 56.0971 27.3784 56.0938 30.5001C56.0938 36.7501 53.9063 42.0626 49.5313 46.4376C45.1563 50.8126 39.8438 53.0001 33.5938 53.0001Z" fill="white"/>
</svg>
