<svg width="61" height="60" viewBox="0 0 61 60" fill="none" xmlns="http://www.w3.org/2000/svg">
<path d="M30.5001 38.75C28.1794 38.75 25.9538 37.8281 24.3129 36.1872C22.672 34.5462 21.7501 32.3206 21.7501 30C21.7501 27.6794 22.672 25.4538 24.3129 23.8128C25.9538 22.1719 28.1794 21.25 30.5001 21.25C32.8207 21.25 35.0463 22.1719 36.6873 23.8128C38.3282 25.4538 39.2501 27.6794 39.2501 30C39.2501 32.3206 38.3282 34.5462 36.6873 36.1872C35.0463 37.8281 32.8207 38.75 30.5001 38.75ZM49.0751 32.425C49.1751 31.625 49.2501 30.825 49.2501 30C49.2501 29.175 49.1751 28.35 49.0751 27.5L54.3501 23.425C54.8251 23.05 54.9501 22.375 54.6501 21.825L49.6501 13.175C49.3501 12.625 48.6751 12.4 48.1251 12.625L41.9001 15.125C40.6001 14.15 39.2501 13.3 37.6751 12.675L36.7501 6.05C36.6993 5.75555 36.5459 5.48857 36.3171 5.29638C36.0883 5.10419 35.7989 4.9992 35.5001 5H25.5001C24.8751 5 24.3501 5.45 24.2501 6.05L23.3251 12.675C21.7501 13.3 20.4001 14.15 19.1001 15.125L12.8751 12.625C12.3251 12.4 11.6501 12.625 11.3501 13.175L6.35009 21.825C6.02509 22.375 6.17509 23.05 6.65009 23.425L11.9251 27.5C11.8251 28.35 11.7501 29.175 11.7501 30C11.7501 30.825 11.8251 31.625 11.9251 32.425L6.65009 36.575C6.17509 36.95 6.02509 37.625 6.35009 38.175L11.3501 46.825C11.6501 47.375 12.3251 47.575 12.8751 47.375L19.1001 44.85C20.4001 45.85 21.7501 46.7 23.3251 47.325L24.2501 53.95C24.3501 54.55 24.8751 55 25.5001 55H35.5001C36.1251 55 36.6501 54.55 36.7501 53.95L37.6751 47.325C39.2501 46.675 40.6001 45.85 41.9001 44.85L48.1251 47.375C48.6751 47.575 49.3501 47.375 49.6501 46.825L54.6501 38.175C54.9501 37.625 54.8251 36.95 54.3501 36.575L49.0751 32.425Z" fill="white"/>
</svg>
